# xmcd CD database file
#
# Track frame offsets:
#	150
#	23585
#	44148
#	67995
#	90507
#	117387
#	150700
#	181627
#	207698
#	234677
#	262115
#	295061
#
# Disc length: 4234 seconds
#
# Revision: 0
# Processed by: cddbd v1.5.1PL0 Copyright (c) Steve Scherf et al.
# Submitted via: CDex 1.51
#
DISCID=aa10880c
DTITLE=Diana Krall - Live in Paris
DYEAR=2002
DGENRE=Jazz
TTITLE0=LIP 01 I Love Being Here With You
TTITLE1=LIP 02 Let's Fall in Love
TTITLE2=LIP 03 'Deed I Do
TTITLE3=LIP 04 The Look of Love
TTITLE4=LIP 05 East of the Sun (and West of the Moon)
TTITLE5=LIP 06 I've Got You Under My Skin
TTITLE6=LIP 07 Devil May Care
TTITLE7=LIP 08 Maybe You'll Be There
TTITLE8=LIP 09 'S Wonderful
TTITLE9=LIP 10 Fly Me To the Moon
TTITLE10=LIP 11 A Case of You
TTITLE11=LIP 12 Just the Way You Are
EXTD=YEAR: 2002
EXTT0=
EXTT1=
EXTT2=
EXTT3=
EXTT4=
EXTT5=
EXTT6=
EXTT7=
EXTT8=
EXTT9=
EXTT10=
EXTT11=
PLAYORDER=
